<svg width="1577" height="555" viewBox="0 0 1577 555" fill="none" xmlns="http://www.w3.org/2000/svg">
<g filter="url(#filter0_f_1245_116)">
<path d="M116.6 246.2H339.2V300.2H116.6V488H50.6V59.6H348.8V114.8H116.6V246.2ZM445.845 372.8L403.245 488H331.845L499.845 59.6H583.245L750.645 488H678.645L636.045 372.8H445.845ZM541.845 119.6H539.445L466.245 317.6H615.645L541.845 119.6ZM1066.37 459.8C1034.77 485 994.767 497.6 946.367 497.6C905.967 497.6 870.367 488.6 839.567 470.6C809.167 452.2 785.567 426.2 768.767 392.6C751.967 358.6 743.567 319 743.567 273.8C743.567 228.6 751.967 189.2 768.767 155.6C785.567 121.6 809.167 95.6 839.567 77.6C870.367 59.2 905.967 50 946.367 50C986.767 50 1022.17 59.2 1052.57 77.6C1083.37 95.6 1107.17 121.6 1123.97 155.6C1140.77 189.2 1149.17 228.6 1149.17 273.8C1149.17 330.6 1136.17 377.2 1110.17 413.6L1177.37 504.2H1097.57L1066.37 459.8ZM946.367 442.4C987.967 442.4 1020.97 427.6 1045.37 398C1069.77 368 1081.97 326.6 1081.97 273.8C1081.97 221 1069.77 179.8 1045.37 150.2C1020.97 120.2 987.967 105.2 946.367 105.2C904.767 105.2 871.767 120.2 847.367 150.2C822.967 179.8 810.767 221 810.767 273.8C810.767 326.6 822.967 368 847.367 398C871.767 427.6 904.767 442.4 946.367 442.4ZM1449.91 183.2C1444.31 156.8 1432.31 137 1413.91 123.8C1395.91 110.2 1372.91 103.4 1344.91 103.4C1318.11 103.4 1296.71 109.6 1280.71 122C1264.71 134.4 1256.71 150.4 1256.71 170C1256.71 186.8 1262.31 199.4 1273.51 207.8C1285.11 215.8 1302.31 222.6 1325.11 228.2L1398.91 245C1426.91 252.2 1449.31 259.6 1466.11 267.2C1483.31 274.4 1497.51 286.4 1508.71 303.2C1520.31 319.6 1526.11 342.4 1526.11 371.6C1526.11 398.8 1518.71 421.8 1503.91 440.6C1489.51 459.4 1469.71 473.6 1444.51 483.2C1419.31 492.8 1391.11 497.6 1359.91 497.6C1307.91 497.6 1265.91 485.4 1233.91 461C1201.91 436.6 1182.11 401.6 1174.51 356L1239.91 349.4C1244.31 383 1257.51 407.2 1279.51 422C1301.51 436.8 1328.71 444.2 1361.11 444.2C1390.71 444.2 1414.31 438 1431.91 425.6C1449.91 412.8 1458.91 395.4 1458.91 373.4C1458.91 359 1455.71 347.6 1449.31 339.2C1442.91 330.8 1434.31 324.4 1423.51 320C1412.71 315.2 1398.31 310.6 1380.31 306.2L1302.31 287C1279.91 281.4 1260.71 274.8 1244.71 267.2C1228.71 259.2 1215.51 247.6 1205.11 232.4C1194.71 216.8 1189.51 196.6 1189.51 171.8C1189.51 147.4 1196.31 126 1209.91 107.6C1223.51 89.2 1242.11 75 1265.71 65C1289.31 55 1315.91 50 1345.51 50C1391.91 50 1429.31 61 1457.71 83C1486.11 105 1505.51 136.6 1515.91 177.8L1449.91 183.2Z" fill="url(#paint0_linear_1245_116)" fill-opacity="0.5"/>
</g>
<defs>
<filter id="filter0_f_1245_116" x="0.600098" y="0" width="1575.51" height="554.2" filterUnits="userSpaceOnUse" color-interpolation-filters="sRGB">
<feFlood flood-opacity="0" result="BackgroundImageFix"/>
<feBlend mode="normal" in="SourceGraphic" in2="BackgroundImageFix" result="shape"/>
<feGaussianBlur stdDeviation="25" result="effect1_foregroundBlur_1245_116"/>
</filter>
<linearGradient id="paint0_linear_1245_116" x1="112" y1="140" x2="1636" y2="588" gradientUnits="userSpaceOnUse">
<stop stop-color="#0A8E8A"/>
<stop offset="1" stop-color="#0A8E8A" stop-opacity="0"/>
</linearGradient>
</defs>
</svg>
