<svg width="3746" height="7040" viewBox="0 0 3746 7040" fill="none" xmlns="http://www.w3.org/2000/svg">
<g filter="url(#filter0_f_1220_93)">
<path d="M2571.55 1533C2525.74 1719.54 2042.2 1793.71 1971.57 1818C1971.57 1818 1309.55 2189.36 1707.55 2515C2105.55 2840.64 2507.68 2610.5 2651.55 2999C2791.33 3376.46 1676.74 4183.91 1171.55 4047C951.233 3987.29 1321.55 3619 1171.55 3023C1033.87 2475.93 646.274 2222.97 623.552 1818C597.09 1346.38 623.552 608.431 623.552 608.431L1892.05 300C1880.6 406.87 1791.16 767.333 2336.65 951.304C2842.89 1122.04 2601.95 1409.26 2571.55 1533Z" fill="url(#paint0_linear_1220_93)"/>
</g>
<g filter="url(#filter1_f_1220_93)">
<path d="M1792.51 4516.16C1530.84 4703.02 1646.53 4941.3 1861.5 5038.57C2236.15 5208.1 1995.43 5716.38 1544.7 5686.95C1093.98 5657.52 1090.88 5136.02 798.241 5291.87C513.915 5443.29 276.622 5919.86 716.313 6127.17C908.07 6217.58 1405.74 6268.55 1882.74 6160.55C2230.18 6081.89 2654.96 5971.76 2865.78 5735.88C3111.3 5461.18 3445.2 4992.21 3445.2 4992.21L2885.34 4365.88C2842.63 4438.19 3402.14 4836.06 2910.06 4634.43C2453.39 4447.32 1946.25 4406.39 1792.51 4516.16Z" fill="url(#paint1_linear_1220_93)"/>
</g>
<g filter="url(#filter2_f_1220_93)">
<path d="M2508.35 1598.08C2462.52 1753.48 2042.44 1797.77 1971.8 1818L1279.55 1911L1731.55 2703L2131.55 3051L1503.55 2943L887.551 2583L623.551 1818V810.312H738.112C726.656 899.345 1251.82 1109.8 1948.87 1192.6C2494.32 1257.39 2538.74 1494.99 2508.35 1598.08Z" fill="url(#paint2_linear_1220_93)"/>
</g>
<g filter="url(#filter3_f_1220_93)">
<path d="M1245.18 2315.94C1237.74 2182.42 709.686 1843.1 657.552 1745L667.951 2416.35C809.868 2522.73 1107.68 2599.65 1303.8 2743.19C1528.41 2907.57 1605.55 2947 1581.55 3067C1556.68 3191.38 1539.7 3481.79 1701.55 3587C1781.55 3639 2545.55 3359 2301.55 2947C2165.55 2743.19 1252.62 2449.45 1245.18 2315.94Z" fill="url(#paint3_linear_1220_93)"/>
</g>
<g filter="url(#filter4_f_1220_93)">
<path d="M1903.69 6235C1779.31 6284.1 1165.66 6321.22 1065.55 6299C965.45 6276.78 451.431 5924.32 585.553 5699C728.363 5459.09 289.435 4882.54 485.553 4739C710.163 4574.61 1145.55 5479 2181.45 5438.78C2308.2 5433.86 2139.59 5023.99 2301.45 4918.78C2381.45 4866.78 3145.45 5146.78 2901.45 5558.78C2765.45 5762.6 2045.55 6179 1903.69 6235Z" fill="url(#paint4_linear_1220_93)"/>
</g>
<g filter="url(#filter5_f_1220_93)">
<path d="M1560.16 4328.89C1657.92 4196.02 1646.47 4132.17 1590.4 4032.4C1520.16 3907.41 1368.6 3900.61 1230.08 3941.02C1082.58 3984.06 997.507 3518.99 892.33 3602.78C771.873 3698.75 731.477 3803.61 747.757 3951.64C769.932 4153.27 936.924 4506.54 1190.03 4433.29C1317.58 4389.03 1470.59 4450.62 1560.16 4328.89Z" fill="url(#paint5_linear_1220_93)"/>
</g>
<g filter="url(#filter6_f_1220_93)">
<path d="M1123.59 1309.59C1038.49 1206.44 798.195 1086.1 698.072 1037.97L718.097 1732.5C895.447 1734.1 1180.93 1619.61 1423.96 1619.04C1702.3 1618.38 1986.26 1741.31 2039.71 1732.5C2164.87 1711.87 2378.6 1647.9 2314.59 1465.78C2258.52 1306.25 1794.41 1263.75 1594.17 1278.65C1664.25 1419.62 1208.7 1412.74 1123.59 1309.59Z" fill="url(#paint6_linear_1220_93)"/>
</g>
<defs>
<filter id="filter0_f_1220_93" x="311.791" y="0" width="2651.79" height="4362.46" filterUnits="userSpaceOnUse" color-interpolation-filters="sRGB">
<feFlood flood-opacity="0" result="BackgroundImageFix"/>
<feBlend mode="normal" in="SourceGraphic" in2="BackgroundImageFix" result="shape"/>
<feGaussianBlur stdDeviation="150" result="effect1_foregroundBlur_1220_93"/>
</filter>
<filter id="filter1_f_1220_93" x="173.316" y="4065.88" width="3571.88" height="2455.61" filterUnits="userSpaceOnUse" color-interpolation-filters="sRGB">
<feFlood flood-opacity="0" result="BackgroundImageFix"/>
<feBlend mode="normal" in="SourceGraphic" in2="BackgroundImageFix" result="shape"/>
<feGaussianBlur stdDeviation="150" result="effect1_foregroundBlur_1220_93"/>
</filter>
<filter id="filter2_f_1220_93" x="503.551" y="690.312" width="2132" height="2480.69" filterUnits="userSpaceOnUse" color-interpolation-filters="sRGB">
<feFlood flood-opacity="0" result="BackgroundImageFix"/>
<feBlend mode="normal" in="SourceGraphic" in2="BackgroundImageFix" result="shape"/>
<feGaussianBlur stdDeviation="60" result="effect1_foregroundBlur_1220_93"/>
</filter>
<filter id="filter3_f_1220_93" x="417.553" y="1505" width="2171.88" height="2328.21" filterUnits="userSpaceOnUse" color-interpolation-filters="sRGB">
<feFlood flood-opacity="0" result="BackgroundImageFix"/>
<feBlend mode="normal" in="SourceGraphic" in2="BackgroundImageFix" result="shape"/>
<feGaussianBlur stdDeviation="120" result="effect1_foregroundBlur_1220_93"/>
</filter>
<filter id="filter4_f_1220_93" x="134.191" y="4419" width="3115.13" height="2186.59" filterUnits="userSpaceOnUse" color-interpolation-filters="sRGB">
<feFlood flood-opacity="0" result="BackgroundImageFix"/>
<feBlend mode="normal" in="SourceGraphic" in2="BackgroundImageFix" result="shape"/>
<feGaussianBlur stdDeviation="150" result="effect1_foregroundBlur_1220_93"/>
</filter>
<filter id="filter5_f_1220_93" x="444.316" y="3292.66" width="1488.87" height="1450.47" filterUnits="userSpaceOnUse" color-interpolation-filters="sRGB">
<feFlood flood-opacity="0" result="BackgroundImageFix"/>
<feBlend mode="normal" in="SourceGraphic" in2="BackgroundImageFix" result="shape"/>
<feGaussianBlur stdDeviation="150" result="effect1_foregroundBlur_1220_93"/>
</filter>
<filter id="filter6_f_1220_93" x="548.072" y="887.966" width="1928.22" height="994.986" filterUnits="userSpaceOnUse" color-interpolation-filters="sRGB">
<feFlood flood-opacity="0" result="BackgroundImageFix"/>
<feBlend mode="normal" in="SourceGraphic" in2="BackgroundImageFix" result="shape"/>
<feGaussianBlur stdDeviation="75" result="effect1_foregroundBlur_1220_93"/>
</filter>
<linearGradient id="paint0_linear_1220_93" x1="1388.55" y1="1220" x2="1785.49" y2="324.244" gradientUnits="userSpaceOnUse">
<stop offset="0.180011" stop-color="#2C9BA3"/>
<stop offset="1" stop-color="#2B519C" stop-opacity="0.42"/>
</linearGradient>
<linearGradient id="paint1_linear_1220_93" x1="2411.47" y1="4876.02" x2="2687.83" y2="4155.33" gradientUnits="userSpaceOnUse">
<stop stop-color="#00BBC7"/>
<stop offset="1" stop-color="#2B519C" stop-opacity="0"/>
</linearGradient>
<linearGradient id="paint2_linear_1220_93" x1="2049.76" y1="1783.64" x2="693.336" y2="240.581" gradientUnits="userSpaceOnUse">
<stop stop-color="#15C6BB"/>
<stop offset="0.340832" stop-color="#17AEB8"/>
<stop offset="0.653131" stop-color="#33D0C7" stop-opacity="0.98"/>
<stop offset="1" stop-color="#2E62C7" stop-opacity="0"/>
</linearGradient>
<linearGradient id="paint3_linear_1220_93" x1="2064.29" y1="3231.74" x2="385.147" y2="1959.58" gradientUnits="userSpaceOnUse">
<stop stop-color="white" stop-opacity="0.24"/>
<stop offset="0.450396" stop-color="#176F7B" stop-opacity="0.53"/>
<stop offset="1" stop-color="white"/>
</linearGradient>
<linearGradient id="paint4_linear_1220_93" x1="2797.55" y1="5907" x2="532.217" y2="5429.34" gradientUnits="userSpaceOnUse">
<stop stop-color="white" stop-opacity="0.52"/>
<stop offset="0.28648" stop-color="#31C6BD" stop-opacity="0.53"/>
<stop offset="0.739726" stop-color="#B7F7EB" stop-opacity="0.904976"/>
<stop offset="0.928656" stop-color="#BEFFE8"/>
</linearGradient>
<linearGradient id="paint5_linear_1220_93" x1="1150.32" y1="4970.45" x2="1200.43" y2="3717.09" gradientUnits="userSpaceOnUse">
<stop stop-color="white" stop-opacity="0.52"/>
<stop offset="0.28648" stop-color="#31C6BD" stop-opacity="0.53"/>
<stop offset="0.739726" stop-color="#B7F7EB" stop-opacity="0.904976"/>
<stop offset="0.928656" stop-color="#BEFFE8"/>
</linearGradient>
<linearGradient id="paint6_linear_1220_93" x1="2293.55" y1="1511" x2="433.599" y2="1493.8" gradientUnits="userSpaceOnUse">
<stop stop-color="white"/>
<stop offset="0.450396" stop-color="#0085A3" stop-opacity="0.78"/>
<stop offset="1" stop-color="white"/>
</linearGradient>
</defs>
</svg>
